<svg width="35" height="35" viewBox="0 0 35 35" fill="none" xmlns="http://www.w3.org/2000/svg">
<g id="ticket-2 1">
<path id="Vector" d="M24.6697 7.11707C24.6697 7.13142 24.6697 7.13142 24.6697 7.14577C24.311 7.13142 23.9522 7.11707 23.5648 7.11707H12.5161L14.0514 5.59608C15.4576 4.17553 17.0073 2.86978 18.801 2.86978C20.6089 2.86978 22.1586 4.17553 23.5648 5.59608L24.3683 6.39962C24.5692 6.58616 24.6697 6.84444 24.6697 7.11707Z" fill="white"/>
<path id="Vector_2" d="M29.9045 18.8964C30.4641 18.8964 30.9089 18.4373 30.9089 17.8633V16.6006C30.9089 10.9615 29.1871 9.25397 23.5623 9.25397H14.5224H10.8779C5.25306 9.25397 3.53119 10.9758 3.53119 16.6006V17.2176C3.53119 17.7916 3.97601 18.2364 4.53562 18.2364C5.74093 18.2364 6.70231 19.2121 6.70231 20.4031C6.70231 21.594 5.74093 22.5841 4.53562 22.5841C3.97601 22.5841 3.53119 23.0289 3.53119 23.6029V24.2199C3.53119 29.859 5.25306 31.5666 10.8779 31.5666H14.5081H23.5479C29.1727 31.5666 30.8946 29.8447 30.8946 24.2199C30.8946 23.6603 30.4498 23.2011 29.8902 23.2011C28.6849 23.2011 27.7235 22.2397 27.7235 21.0488C27.7378 19.8578 28.6992 18.8964 29.9045 18.8964ZM15.5269 27.061C15.5269 27.6206 15.0677 28.0798 14.5081 28.0798C13.9485 28.0798 13.4894 27.6206 13.4894 27.061V23.2155C13.4894 22.6559 13.9485 22.1967 14.5081 22.1967C15.0677 22.1967 15.5269 22.6559 15.5269 23.2155V27.061ZM15.5269 17.605C15.5269 18.1646 15.0677 18.6238 14.5081 18.6238C13.9485 18.6238 13.4894 18.1646 13.4894 17.605V13.7595C13.4894 13.1999 13.9485 12.7408 14.5081 12.7408C15.0677 12.7408 15.5269 13.1999 15.5269 13.7595V17.605Z" fill="white"/>
</g>
</svg>
